<svg id="Layer_1" data-name="Layer 1" xmlns="http://www.w3.org/2000/svg" viewBox="0 0 500 500">
  <defs>
    <style>
      .cls-1 {
        fill: #231f20;
      }
    </style>
  </defs>
  <path class="cls-1" d="M250,0C111.93,0,0,111.93,0,250S111.93,500,250,500,500,388.07,500,250,388.07,0,250,0Zm0,460C134,460,40,366,40,250S134,40,250,40s210,94,210,210S366,460,250,460Z"/>
  <path class="cls-1" d="M339.19,229.14l-114-79.93c-16.88-11.84-40.1.24-40.1,20.86V329.93c0,20.62,23.22,32.7,40.1,20.86l114-79.93A25.47,25.47,0,0,0,339.19,229.14Z"/>
</svg>
