<svg id="Layer_1" data-name="Layer 1" xmlns="http://www.w3.org/2000/svg" viewBox="0 0 500 500">
  <defs>
    <style>
      .cls-1 {
        fill: none;
      }
    </style>
  </defs>
  <path class="cls-1" d="M416.42,151.69,354.13,108a13.92,13.92,0,0,0-21.91,11.4v19.41a108.78,108.78,0,0,0-12.08.83c-8.78,1.11-17.37,2.45-25.71,5.52a111.47,111.47,0,0,0-21.94,10.52,123.38,123.38,0,0,0-31,28.36c-5.07,6.46-9.94,13-14.39,19.91-7,10.79-13.2,22-19.59,33.19s-13,22.35-20.63,32.78c-.38.52-.78,1-1.16,1.55a131,131,0,0,1-14.9,15.8c-1,.91-2.08,1.79-3.14,2.66a95.58,95.58,0,0,1-15.62,9.18,101.71,101.71,0,0,1-19.48,5.23,143.68,143.68,0,0,1-29.83-.1,18,18,0,0,0-9.21,2.06,18,18,0,0,0-7.7,4.95,17.92,17.92,0,0,0-5,7.7,18,18,0,0,0-2.06,9.22q.44,3.18.85,6.36a23.87,23.87,0,0,0,6.16,10.55l4.84,3.74a23.73,23.73,0,0,0,12.07,3.27,146.6,146.6,0,0,0,27.07.39,138.36,138.36,0,0,0,28.91-5.14,146.56,146.56,0,0,0,15.5-6,91.13,91.13,0,0,0,9.16-4.6,129.68,129.68,0,0,0,20.8-15.2,125.71,125.71,0,0,0,13.7-14.18,246.2,246.2,0,0,0,15.52-20.72c7.55-11.28,14.17-23.14,20.9-34.92,6.58-11.54,13.27-23.07,21.1-33.82.4-.55.81-1.08,1.21-1.62a121.64,121.64,0,0,1,13.67-14.49c.85-.75,1.71-1.48,2.58-2.2a85.09,85.09,0,0,1,13.56-8,88.21,88.21,0,0,1,16.36-4.39c3.13-.31,6.27-.48,9.4-.52v20.06a13.92,13.92,0,0,0,21.91,11.4l62.29-43.66A13.92,13.92,0,0,0,416.42,151.69Z"/>
  <path class="cls-1" d="M416.42,316l-62.29-43.67a13.92,13.92,0,0,0-21.91,11.4v20.06c-3.13,0-6.27-.21-9.39-.52a88.29,88.29,0,0,1-16.37-4.38,85.85,85.85,0,0,1-13.56-8c-.87-.72-1.73-1.46-2.58-2.21a120.13,120.13,0,0,1-13.67-14.49l-1.21-1.61c-3.21-4.41-6.22-9-9.12-13.58l-2,3.48c-6,10.56-12.24,21.49-19.26,32-2,2.92-4,5.81-6.1,8.67.85,1.1,1.69,2.2,2.54,3.29a128.57,128.57,0,0,0,12.15,13.51,127.13,127.13,0,0,0,18.82,14.85,110.87,110.87,0,0,0,21.94,10.51c8.34,3.07,16.93,4.42,25.71,5.53a106.4,106.4,0,0,0,12.08.82V371a13.92,13.92,0,0,0,21.91,11.4l62.29-43.67A13.91,13.91,0,0,0,416.42,316Z"/>
  <path class="cls-1" d="M416.42,151.69,354.13,108a13.92,13.92,0,0,0-21.91,11.4v19.41a108.78,108.78,0,0,0-12.08.83c-8.78,1.11-17.37,2.45-25.71,5.52a111.47,111.47,0,0,0-21.94,10.52,123.38,123.38,0,0,0-31,28.36c-5.07,6.46-9.94,13-14.39,19.91-7,10.79-13.2,22-19.59,33.19s-13,22.35-20.63,32.78c-.38.52-.78,1-1.16,1.55a131,131,0,0,1-14.9,15.8c-1,.91-2.08,1.79-3.14,2.66a95.58,95.58,0,0,1-15.62,9.18,101.71,101.71,0,0,1-19.48,5.23,143.68,143.68,0,0,1-29.83-.1,18,18,0,0,0-9.21,2.06,18,18,0,0,0-7.7,4.95,17.92,17.92,0,0,0-5,7.7,18,18,0,0,0-2.06,9.22q.44,3.18.85,6.36a23.87,23.87,0,0,0,6.16,10.55l4.84,3.74a23.73,23.73,0,0,0,12.07,3.27,146.6,146.6,0,0,0,27.07.39,138.36,138.36,0,0,0,28.91-5.14,146.56,146.56,0,0,0,15.5-6,91.13,91.13,0,0,0,9.16-4.6,129.68,129.68,0,0,0,20.8-15.2,125.71,125.71,0,0,0,13.7-14.18,246.2,246.2,0,0,0,15.52-20.72c7.55-11.28,14.17-23.14,20.9-34.92,6.58-11.54,13.27-23.07,21.1-33.82.4-.55.81-1.08,1.21-1.62a121.64,121.64,0,0,1,13.67-14.49c.85-.75,1.71-1.48,2.58-2.2a85.09,85.09,0,0,1,13.56-8,88.21,88.21,0,0,1,16.36-4.39c3.13-.31,6.27-.48,9.4-.52v20.06a13.92,13.92,0,0,0,21.91,11.4l62.29-43.66A13.92,13.92,0,0,0,416.42,151.69Z"/>
  <path d="M250,0C111.93,0,0,111.93,0,250S111.93,500,250,500,500,388.07,500,250,388.07,0,250,0ZM78.86,162.25l.85-6.36a24,24,0,0,1,6.16-10.56l4.84-3.74a23.93,23.93,0,0,1,12.07-3.27,147.48,147.48,0,0,1,27.07-.38,137.69,137.69,0,0,1,28.91,5.13,151,151,0,0,1,15.5,6,91.13,91.13,0,0,1,9.16,4.6,130.36,130.36,0,0,1,20.8,15.21,125.61,125.61,0,0,1,13.7,14.17c1.2,1.44,2.38,2.9,3.55,4.36-2.21,3.09-4.23,6-6.1,8.94-5.92,9.15-11.3,18.61-16.51,27.75l-3.46,6.08-.84,1.45c-2.45-3.78-5-7.52-7.65-11.16l-1.16-1.56a130.89,130.89,0,0,0-14.9-15.79c-1-.91-2.08-1.8-3.14-2.67a95.53,95.53,0,0,0-15.62-9.17,101,101,0,0,0-19.48-5.24,144.38,144.38,0,0,0-29.83.1,17.92,17.92,0,0,1-9.21-2.06,17.84,17.84,0,0,1-7.7-4.94,18,18,0,0,1-5-7.7A18.05,18.05,0,0,1,78.86,162.25Zm337.56,176.5-62.29,43.67A13.92,13.92,0,0,1,332.22,371V351.6a106.4,106.4,0,0,1-12.08-.82c-8.78-1.11-17.37-2.46-25.71-5.53a110.87,110.87,0,0,1-21.94-10.51,127.13,127.13,0,0,1-18.82-14.85,128.57,128.57,0,0,1-12.15-13.51c-.85-1.09-1.69-2.19-2.54-3.29,2.1-2.86,4.15-5.75,6.1-8.67,7-10.48,13.24-21.41,19.26-32l2-3.48c2.9,4.62,5.91,9.17,9.12,13.58l1.21,1.61a120.13,120.13,0,0,0,13.67,14.49c.85.75,1.71,1.49,2.58,2.21a85.85,85.85,0,0,0,13.56,8,88.29,88.29,0,0,0,16.37,4.38c3.12.31,6.26.48,9.39.52V283.69a13.92,13.92,0,0,1,21.91-11.4L416.42,316A13.91,13.91,0,0,1,416.42,338.75Zm0-164.26-62.29,43.66a13.92,13.92,0,0,1-21.91-11.4V186.69c-3.13,0-6.27.21-9.4.52a88.21,88.21,0,0,0-16.36,4.39,85.09,85.09,0,0,0-13.56,8c-.87.72-1.73,1.45-2.58,2.2a121.64,121.64,0,0,0-13.67,14.49c-.4.54-.81,1.07-1.21,1.62-7.83,10.75-14.52,22.28-21.1,33.82-6.73,11.78-13.35,23.64-20.9,34.92a246.2,246.2,0,0,1-15.52,20.72,125.71,125.71,0,0,1-13.7,14.18,129.68,129.68,0,0,1-20.8,15.2,91.13,91.13,0,0,1-9.16,4.6,146.56,146.56,0,0,1-15.5,6,138.36,138.36,0,0,1-28.91,5.14,146.6,146.6,0,0,1-27.07-.39,23.73,23.73,0,0,1-12.07-3.27l-4.84-3.74a23.87,23.87,0,0,1-6.16-10.55q-.42-3.18-.85-6.36A18,18,0,0,1,80.92,319a17.92,17.92,0,0,1,5-7.7,18,18,0,0,1,7.7-4.95,18,18,0,0,1,9.21-2.06,143.68,143.68,0,0,0,29.83.1,101.71,101.71,0,0,0,19.48-5.23A95.58,95.58,0,0,0,167.71,290c1.06-.87,2.11-1.75,3.14-2.66a131,131,0,0,0,14.9-15.8c.38-.52.78-1,1.16-1.55,7.64-10.43,14.22-21.58,20.63-32.78s12.61-22.4,19.59-33.19c4.45-6.9,9.32-13.45,14.39-19.91a123.38,123.38,0,0,1,31-28.36,111.47,111.47,0,0,1,21.94-10.52c8.34-3.07,16.93-4.41,25.71-5.52a108.78,108.78,0,0,1,12.08-.83V119.43A13.92,13.92,0,0,1,354.13,108l62.29,43.66A13.92,13.92,0,0,1,416.42,174.49Z"/>
</svg>
