<svg id="Layer_1" data-name="Layer 1" xmlns="http://www.w3.org/2000/svg" viewBox="0 0 500 500">
  <defs>
    <style>
      .cls-1 {
        fill: #231f20;
      }
    </style>
  </defs>
  <path class="cls-1" d="M250,0C111.93,0,0,111.93,0,250S111.93,500,250,500,500,388.07,500,250,388.07,0,250,0Zm0,460C134,460,40,366,40,250S134,40,250,40s210,94,210,210S366,460,250,460Z"/>
  <path class="cls-1" d="M102.78,352.12a146.6,146.6,0,0,0,27.07.39,138.36,138.36,0,0,0,28.91-5.14,146.56,146.56,0,0,0,15.5-6,91.13,91.13,0,0,0,9.16-4.6,129.68,129.68,0,0,0,20.8-15.2,125.71,125.71,0,0,0,13.7-14.18,246.2,246.2,0,0,0,15.52-20.72c7.55-11.28,14.17-23.14,20.9-34.92,6.58-11.54,13.27-23.07,21.1-33.82q1.41-1.92,2.85-3.81l-3.74,4.84a125.53,125.53,0,0,1,15.77-17.14q2.46-2.17,5.06-4.19l-4.84,3.74a85.08,85.08,0,0,1,18.68-11l-5.72,2.41A88.55,88.55,0,0,1,326,186.72l-6.36.86a116.27,116.27,0,0,1,23.59-.57,26.66,26.66,0,0,0,16.91-7,17.89,17.89,0,0,0,4.95-7.7,18,18,0,0,0,2.06-9.22l-.85-6.36a24,24,0,0,0-6.16-10.56l-4.84-3.74a23.93,23.93,0,0,0-12.07-3.27,117.63,117.63,0,0,0-23.13.51c-8.78,1.11-17.37,2.45-25.71,5.52a111.47,111.47,0,0,0-21.94,10.52,123.38,123.38,0,0,0-31,28.36c-5.07,6.46-9.94,13-14.39,19.91-7,10.79-13.2,22-19.59,33.19s-13,22.35-20.63,32.78c-.92,1.25-1.85,2.5-2.81,3.74l3.74-4.85a133.87,133.87,0,0,1-17,18.46c-1.8,1.59-3.64,3.12-5.54,4.58l4.84-3.74a95,95,0,0,1-20.84,12.23L155,298a101.25,101.25,0,0,1-25.71,6.91l6.36-.85a141.33,141.33,0,0,1-32.89.25,18,18,0,0,0-9.21,2.06,18,18,0,0,0-7.7,4.95,17.92,17.92,0,0,0-5,7.7,18,18,0,0,0-2.06,9.22l.85,6.36a23.87,23.87,0,0,0,6.16,10.55l4.84,3.74a23.73,23.73,0,0,0,12.07,3.27Z"/>
  <path class="cls-1" d="M85.87,179.17a17.84,17.84,0,0,0,7.7,4.94,17.92,17.92,0,0,0,9.21,2.06,144.38,144.38,0,0,1,29.83-.1,101,101,0,0,1,19.48,5.24,95.53,95.53,0,0,1,15.62,9.17c1.06.87,2.11,1.76,3.14,2.67a130.89,130.89,0,0,1,14.9,15.79l1.16,1.56c2.67,3.64,5.2,7.38,7.65,11.16l.84-1.45,3.46-6.08c5.21-9.14,10.59-18.6,16.51-27.75,1.87-2.9,3.89-5.85,6.1-8.94-1.17-1.46-2.35-2.92-3.55-4.36a125.61,125.61,0,0,0-13.7-14.17,130.36,130.36,0,0,0-20.8-15.21,91.13,91.13,0,0,0-9.16-4.6,151,151,0,0,0-15.5-6,137.69,137.69,0,0,0-28.91-5.13,147.48,147.48,0,0,0-27.07.38,23.93,23.93,0,0,0-12.07,3.27l-4.84,3.74a24,24,0,0,0-6.16,10.56q-.42,3.18-.85,6.36a18.05,18.05,0,0,0,2.06,9.22A18,18,0,0,0,85.87,179.17Z"/>
  <path d="M416.42,316l-62.29-43.67a13.92,13.92,0,0,0-21.91,11.4v20.06c-3.13,0-6.27-.21-9.39-.52a88.29,88.29,0,0,1-16.37-4.38,85.85,85.85,0,0,1-13.56-8c-.87-.72-1.73-1.46-2.58-2.21a120.13,120.13,0,0,1-13.67-14.49l-1.21-1.61c-3.21-4.41-6.22-9-9.12-13.58l-2,3.48c-6,10.56-12.24,21.49-19.26,32-2,2.92-4,5.81-6.1,8.67.85,1.1,1.69,2.2,2.54,3.29a128.57,128.57,0,0,0,12.15,13.51,127.13,127.13,0,0,0,18.82,14.85,110.87,110.87,0,0,0,21.94,10.51c8.34,3.07,16.93,4.42,25.71,5.53a106.4,106.4,0,0,0,12.08.82V371a13.92,13.92,0,0,0,21.91,11.4l62.29-43.67A13.91,13.91,0,0,0,416.42,316Z"/>
  <path d="M416.42,151.69,354.13,108a13.92,13.92,0,0,0-21.91,11.4v19.41a108.78,108.78,0,0,0-12.08.83c-8.78,1.11-17.37,2.45-25.71,5.52a111.47,111.47,0,0,0-21.94,10.52,123.38,123.38,0,0,0-31,28.36c-5.07,6.46-9.94,13-14.39,19.91-7,10.79-13.2,22-19.59,33.19s-13,22.35-20.63,32.78c-.38.52-.78,1-1.16,1.55a131,131,0,0,1-14.9,15.8c-1,.91-2.08,1.79-3.14,2.66a95.58,95.58,0,0,1-15.62,9.18,101.71,101.71,0,0,1-19.48,5.23,143.68,143.68,0,0,1-29.83-.1,18,18,0,0,0-9.21,2.06,18,18,0,0,0-7.7,4.95,17.92,17.92,0,0,0-5,7.7,18,18,0,0,0-2.06,9.22q.44,3.18.85,6.36a23.87,23.87,0,0,0,6.16,10.55l4.84,3.74a23.73,23.73,0,0,0,12.07,3.27,146.6,146.6,0,0,0,27.07.39,138.36,138.36,0,0,0,28.91-5.14,146.56,146.56,0,0,0,15.5-6,91.13,91.13,0,0,0,9.16-4.6,129.68,129.68,0,0,0,20.8-15.2,125.71,125.71,0,0,0,13.7-14.18,246.2,246.2,0,0,0,15.52-20.72c7.55-11.28,14.17-23.14,20.9-34.92,6.58-11.54,13.27-23.07,21.1-33.82.4-.55.81-1.08,1.21-1.62a121.64,121.64,0,0,1,13.67-14.49c.85-.75,1.71-1.48,2.58-2.2a85.09,85.09,0,0,1,13.56-8,88.11,88.11,0,0,1,16.37-4.39c3.12-.31,6.26-.48,9.39-.52v20.06a13.92,13.92,0,0,0,21.91,11.4l62.29-43.66A13.92,13.92,0,0,0,416.42,151.69Z"/>
</svg>
